# xmcd
#
# Track frame offsets:
#	150
#	18846
#	35097
#	51950
#	71561
#	82372
#	96985
#	113840
#	125176
#	144767
#	158090
#	169561
#	184766
#	204625
#
# Disc length: 2948
#
# Revision: 1
# Processed by: cddbd v1.5.1PL0 Copyright (c) Steve Scherf et al.
# Submitted via: dBpowerAMP V4.0
# Normalized: r0:TRMNUM
#
DISCID=c60b820e
DTITLE=Elbe - Lecarpentier - Fallet - L'amour en accoustique
DYEAR=2005
DGENRE=Acoustic
TTITLE0=Sur toi
TTITLE1=Fais moi une Place
TTITLE2=Tu es mon autre
TTITLE3=L'amour dans l'ame
TTITLE4=Quelqu'un ma dit
TTITLE5=D'aventures en aventres
TTITLE6=Seule
TTITLE7=Drole de vie
TTITLE8=Message personnel
TTITLE9=Forteresse
TTITLE10=Le tourbillon de la vie
TTITLE11=Je t'oublierai,Je t'oublierai
TTITLE12=Lucie
TTITLE13=S'il suffisait d'aimer
EXTD=L'amour en accoustique
EXTT0=
EXTT1=
EXTT2=
EXTT3=
EXTT4=
EXTT5=
EXTT6=
EXTT7=
EXTT8=
EXTT9=
EXTT10=
EXTT11=
EXTT12=
EXTT13=
PLAYORDER=
